<?xml version="1.0" encoding="utf-8"?>
<!-- Generator: Adobe Illustrator 26.3.0, SVG Export Plug-In . SVG Version: 6.00 Build 0)  -->
<svg version="1.1" id="Capa_1" xmlns="http://www.w3.org/2000/svg" xmlns:xlink="http://www.w3.org/1999/xlink" x="0px" y="0px"
	 viewBox="0 0 2233.49 359.96" style="enable-background:new 0 0 2233.49 359.96;" xml:space="preserve">
<style type="text/css">
	.st0{fill:#FFBE58;}
</style>
<path class="st0" d="M80.96,287.43c5.98-0.35,10.97,1.43,16.2,2.92c0.63,2.42,1.26,4.69,1.82,6.97c2.38,9.68,6.29,18.64,12.22,26.7
	c6.79,9.23,15.84,15.07,26.86,17.82c5.66,1.41,11.39,2.53,17.31,2.43c10.99-0.18,21.09-3.35,30.5-8.82
	c7.81-4.54,14.75-10.25,20.73-16.99c5.54-6.24,10.35-13.06,14.6-20.29c8.31-14.14,13.68-29.36,16.83-45.38
	c0.93-4.74,1.26-9.61,1.7-14.43c0.38-4.21,0.94-8.47,0.67-12.66c-0.5-7.68-1.08-15.42-4.76-22.46c-4.18-7.99-9.93-14.52-17.28-19.79
	c-12.16-8.72-25.82-13.99-40.16-17.5c-9.03-2.21-18.23-3.8-27.42-5.31c-4.39-0.72-8.92-0.72-13.39-0.86
	c-4.24-0.13-8.49,0.07-12.73-0.05c-10.88-0.29-21.6,1.1-32.23,3.17c-9.9,1.93-19.66,4.52-29.1,8.12
	c-7.71,2.94-15.01,6.72-21.86,11.35c-6.5,4.39-11.88,9.94-15.66,16.78c-4.63,8.38-5.2,17.25-1.93,26.35
	c3.48,9.66,9.96,16.75,18.21,22.61c10.33,7.33,21.89,11.81,33.82,15.55c0.44,0.14,0.95,0.07,1.62,0.11c0.7-3.19,0.46-6.24,0.15-9.61
	c-1.31-0.45-2.54-1.03-3.84-1.31c-11.18-2.42-21.28-7.27-29.96-14.58c-5.03-4.23-9.35-9.55-10.48-16.41
	c-1.53-9.25,0.02-17.81,6.45-25.17c5.58-6.39,12.29-11.01,19.85-14.8c10.83-5.42,22.32-8.49,34.06-10.85
	c5.83-1.18,11.72-2.16,17.62-2.93c4.18-0.55,8.42-0.74,12.64-0.85c5.74-0.14,11.49-0.11,17.23-0.02c8.21,0.13,16.37,0.96,24.4,2.67
	c7.05,1.5,14.15,2.94,21.02,5.07c11,3.41,21.62,7.91,30.58,15.32c6.75,5.59,12.82,11.97,15.46,20.72c1.75,5.78,2.41,11.7,1.42,17.71
	c-0.51,3.06-0.92,6.18-1.84,9.13c-2.23,7.11-6.08,13.23-10.97,18.93c-5.98,6.99-13.29,12.02-21.27,16.09
	c-7.44,3.79-15.39,6.38-23.56,8.34c-7.88,1.89-15.84,3.1-23.9,3.76c-4.58,0.38-9.18,0.53-13.77,0.79
	c-4.09,0.23-8.19,0.78-12.27,0.64c-7.44-0.25-14.87-0.95-22.31-1.37c-7.22-0.4-14.32-1.56-21.37-3.06
	c-16.2-3.45-31.73-8.74-45.84-17.59c-9.29-5.82-17.16-13.32-23.15-22.51c-3.84-5.89-5.85-12.6-7.15-19.56
	c-1.53-8.21-0.47-16.15,1.85-23.97c1.83-6.17,5.1-11.68,9.42-16.44c9.98-11.01,22.1-18.9,35.89-24.34
	c8.71-3.44,17.49-6.64,26.66-8.55c6.8-1.41,13.66-2.57,20.54-3.55c5.28-0.75,10.61-1.08,15.93-1.51c4.09-0.33,8.19-0.82,12.27-0.68
	c7.07,0.23,14.12,0.91,21.18,1.37c12.47,0.83,24.63,3.38,36.59,6.84c6.45,1.87,12.8,4.18,18.98,6.8
	c9.09,3.84,17.71,8.66,25.38,14.92c9.73,7.93,17.61,17.4,21.4,29.57c1.61,5.17,2.72,10.59,2.72,16.15c0,4.1,0.74,8.2,0.64,12.29
	c-0.34,13.73-2.1,27.24-6.04,40.48c-2.36,7.92-5.11,15.7-8.69,23.08c-4.84,9.98-10.34,19.68-17.61,28.15
	c-4.79,5.57-9.84,10.98-15.22,15.96c-7.37,6.82-15.99,11.83-25.22,15.79c-6.35,2.72-13.01,4.55-19.81,5.08
	c-6.54,0.51-13.17-0.21-19.76-0.38c-5.69-0.15-11.03-1.86-16.31-3.77c-6.72-2.44-12.77-5.99-18.41-10.46
	c-14.45-11.45-21.33-27.23-25.91-44.39c-0.77-2.89-1.43-5.81-2-8.74C80.97,290.73,81.06,289.35,80.96,287.43z M94.82,267.39
	c1.45,0.38,2.75,0.86,4.08,1.03c8.27,1.04,16.55,1.6,24.9,1.65c13.46,0.07,26.83-0.44,40.08-3.06c11.67-2.31,23.06-5.42,33.41-11.44
	c3.85-2.24,7.76-4.69,10.87-7.81c4.61-4.61,7.85-10.31,9.46-16.74c1.96-7.77,0.79-14.93-4.08-21.51
	c-3.89-5.26-9.09-8.81-14.57-12.01c-9.03-5.28-19.02-8.21-29.08-10.48c-8.68-1.96-17.6-3.2-26.48-3.85
	c-9.67-0.7-19.45-0.53-29.08,0.77c-7.61,1.03-15.22,2.1-22.71,4.05c-9.67,2.52-19.2,5.31-28.03,10.1
	c-5.09,2.76-9.73,6.08-12.83,11.14c-2.66,4.35-2.91,8.76,0.35,12.89c1.61,2.04,3.39,4.08,5.48,5.58
	c9.77,6.99,20.61,10.94,32.76,10.82c1.32-0.01,2.64,0.14,4.11,0.23C94.26,248.39,92.77,257.79,94.82,267.39z"/>
<path class="st0" d="M154.98,20.44c3.1-0.03,4.92,2.35,6.87,4.04c7.49,6.53,12.44,14.7,13.33,24.71c0.85,9.49,0.18,18.92-3.5,27.93
	c-2.96,7.26-6.51,14.35-7.76,22.18c-1.21,7.59-1.23,15.13,2.11,22.33c0.44,0.94,0.71,1.97,1.35,3.75c-1.7-0.49-2.7-0.54-3.43-1.01
	c-7.72-4.96-12.63-12.08-14.59-20.92c-1.66-7.48-1.34-15.1,1.17-22.46c2.29-6.72,4.7-13.39,7.14-20.05
	c2.45-6.68,3.3-13.61,2.57-20.61c-0.55-5.32-2.14-10.49-4.6-15.32C154.95,23.64,153.76,22.26,154.98,20.44z"/>
<path class="st0" d="M131.67,106.64c-1.22-0.75-2.59-1.34-3.65-2.27c-6.31-5.52-11.57-11.88-12.91-20.43
	c-1.02-6.53-1.08-13.2,0.79-19.64c1.53-5.25,3.15-10.5,5.23-15.55c2.87-6.98,5-14.16,5.3-21.63c0.18-4.5-0.95-9.12-2-13.57
	c-0.76-3.24-2.36-6.28-3.58-9.41c-0.26-0.67-0.49-1.35-0.82-2.28c0.72-0.07,1.27-0.32,1.61-0.14c3.53,1.86,6.89,3.97,9.44,7.13
	c1.17,1.45,2.49,2.78,3.58,4.29c3.43,4.74,5.18,10.16,6.22,15.87c2.24,12.29-0.87,23.68-5.65,34.82
	c-3.45,8.04-6.49,16.29-6.21,25.17c0.13,4.28,1.53,8.52,2.43,12.77c0.29,1.39,0.81,2.74,1.22,4.11
	C132.34,106.13,132,106.39,131.67,106.64z"/>
<g>
	<path class="st0" d="M1947.03,125.75c25.3,1.44,48.93-2.53,72.39,2.61c22.55,4.95,42.58,29.58,41.52,52.52
		c-0.76,16.35-3.84,30.88-14.91,42.97c0.3,1.61,0.13,3.13,0.81,4.01c10.46,13.6,11.99,29.21,11.32,45.7
		c-0.65,16.03-0.14,32.11-0.14,48.92c-11.44,3.68-22.29,1.04-34.31,1.84c-0.5-4.38-1.22-7.97-1.25-11.57
		c-0.14-14.4-0.03-28.8-0.07-43.2c-0.05-21.47-8.66-29.74-30.37-29.1c-2.85,0.08-5.69,0.65-10.16,1.2
		c-0.05,27.28-0.11,54.13-0.16,81.81c-12.38,0-23.07,0-34.65,0C1947.03,257.64,1947.03,192.71,1947.03,125.75z M1982.45,203.81
		c4.41,0.41,7.3,0.84,10.2,0.9c4.65,0.11,9.34,0.31,13.96-0.12c9.76-0.92,16.83-7.34,18.03-16.74c1.32-10.29-0.65-18.58-10.92-23.17
		c-10.24-4.58-20.3-3.44-31.26-1.71C1982.45,176.68,1982.45,189.62,1982.45,203.81z"/>
	<path class="st0" d="M1869.98,226.88c0,15.65-0.59,31.33,0.14,46.95c1.19,25.42-24.04,52.36-48.54,55.44
		c-29.29,3.68-56.6-14.58-63.21-42.5c-1.73-7.3-2.53-14.97-2.63-22.49c-0.33-23.68-0.4-47.38,0.02-71.06
		c0.17-9.63,1.4-19.31,2.93-28.84c3.29-20.47,29.23-40.53,49.13-41.23c14.63-0.52,28.08,2.65,39.52,10.91
		c13.93,10.06,21.42,24.74,22.54,42.08c0.54,8.42,0.1,16.91,0.1,25.37S1869.98,218.42,1869.98,226.88z M1831.84,226.66
		c-0.01,0-0.03,0-0.04,0c0-15.22,0.35-30.45-0.12-45.65c-0.35-11.28-8.26-19.38-17.66-19.42c-11.48-0.04-19.36,7.72-20.22,19.91
		c-0.06,0.84-0.03,1.69-0.03,2.54c0,27.48-0.22,54.96,0.2,82.43c0.08,5.23,1.86,10.85,4.3,15.53c6.14,11.78,21.57,12.85,28.9,1.84
		c2.83-4.26,4.24-10.12,4.46-15.33C1832.23,254.57,1831.84,240.61,1831.84,226.66z"/>
	<path class="st0" d="M711.47,228.32c0,13.96-0.18,27.92,0.04,41.88c0.48,30.8-25.42,57.35-56.56,57.42
		c-24.09,0.05-49.54-20.53-53.56-40.39c-0.83-4.1-1.65-8.3-1.67-12.46c-0.14-32.15-0.18-64.3-0.04-96.46
		c0.12-28.37,22.35-51.01,48.75-54.68c26.66-3.7,53.36,15.55,60.39,41.53c3.39,12.53,2.45,25.14,2.63,37.77
		C711.56,211.4,711.46,219.86,711.47,228.32z M635.25,226.48c0,2.96,0,5.93,0,8.89c0.02,12.28-0.28,24.57,0.17,36.84
		c0.34,9.25,7.01,17.38,14.33,18.84c10.8,2.15,19.09-1.94,23.36-12.41c1.7-4.17,2.58-8.95,2.62-13.47
		c0.24-25.83,0.28-51.67-0.02-77.5c-0.06-5.38-0.95-11.1-3.01-16.02c-5.13-12.26-19.12-15.73-29.32-7.51
		c-5.92,4.78-8.17,11.56-8.14,19.14C635.29,197.68,635.26,212.08,635.25,226.48z"/>
	<path class="st0" d="M1518.43,204.02c-11.89,0-22.28,0-33.91,0c-0.27-6.48-0.67-12.25-0.72-18.03c-0.15-16.82-4.06-21.74-23-26.61
		c-3.78,3.18-9.79,6.29-12.88,11.22c-7.15,11.39-2.5,26.2,9.9,33.71c9.38,5.68,19.32,10.43,28.82,15.92
		c10.21,5.91,20.61,11.76,26.59,22.66c1.81,3.3,4.16,6.68,4.68,10.25c2.71,18.61,4.36,37.35-8.8,53.19
		c-4.49,5.4-9.86,10.63-15.89,14.11c-35.74,20.67-71.85,0.39-82.68-32.24c-3.21-9.67-4.26-19.79-1.89-31.31
		c10.39-2.48,21.18-0.88,33.34-1.09c0.48,4.66,0.53,8.76,1.38,12.68c2.17,9.99,4.12,20.16,16.63,22.9
		c8.62,1.89,16.19-1.42,21.03-10.04c4.75-8.44,4.01-17.46-3.54-22.67c-10.73-7.42-22.04-14.11-33.54-20.3
		c-22.38-12.03-35.04-30.78-36.04-55.71c-1.03-25.53,16.42-54.05,48.94-58.82c25.87-3.79,54.25,11.17,61.12,41.41
		C1520.7,177.19,1518.43,190.26,1518.43,204.02z"/>
	<path class="st0" d="M491.07,194.68c-0.25-5.7-0.26-11.12-0.77-16.49c-1.18-12.52-16-21.65-27.12-16.19
		c-3.79,1.86-7.6,5.8-9.12,9.69c-2.42,6.17-3.94,13.07-4.07,19.69c-0.47,23.3-0.35,46.62-0.06,69.92
		c0.07,5.41,1.25,10.93,2.76,16.16c2.44,8.43,12.47,15.45,20.03,14.71c8.11-0.79,16.13-8.72,17.37-17.87
		c0.72-5.38,0.57-10.88,0.86-17.5c11.23-2.03,21.97-1.2,32.5-0.72c9.35,33.38-6.07,58.21-33.49,68.89
		c-38.3,14.92-74.99-16.05-75.67-53.71c-0.54-30.08-0.9-60.2,0.1-90.26c1.13-33.63,27.01-59.03,59.71-57.65
		c28.66,1.21,51.69,24.89,51.89,53.61c0.04,5.89,0.01,11.78,0.01,17.27C515.96,197.92,504.44,198.14,491.07,194.68z"/>
	<path class="st0" d="M2229.9,208.37c0.96,11.56,2.05,21.93-1.21,33.78c-17.97,1.93-36.11-0.13-53.73,1.19
		c-3.45,10.19-3.62,34.43-0.2,46.61c18.2,3.31,37.28-0.38,56.73,2.11c3.38,9.87,1.5,19.86,1.2,29.61
		c-8.8,3.21-74.78,4.22-94.86,1.42c-2.33-12.52-0.8-25.57-1.07-38.49c-0.27-13.13-0.06-26.28-0.06-39.41c0-12.71,0-25.43,0-38.14
		c0-13.14-0.05-26.28,0.01-39.41c0.06-13.01,0.25-26.03,0.37-38.38c10.28-3.97,78-4.72,92.75-1.4c0,10.5,0,21.2,0,33.45
		c-18.76,0.19-36.72,0.36-55.5,0.55c-3.82,14.96-1.27,28.68-1.87,43.5C2191.77,209.75,2210.48,205.32,2229.9,208.37z"/>
	<path class="st0" d="M1145.16,128.2c10.11-2.82,76.95-3.28,90.87-0.7c2.37,10.49,1.63,21.21,0.33,33.58
		c-18.71,0.3-37.05,0.6-56.71,0.92c-1.38,15.08-0.56,29.17-0.48,44.31c19.45,2.25,37.98-0.1,56.64,1.56
		c2.59,10.8,1.85,20.67,0.37,32.32c-18.25,0-36.21,0-55.14,0c-3.61,17.28-2.22,32.92-1.13,49.48c18.89,3.54,37.12-0.05,55.66,2.39
		c3.43,9.89,1.51,19.87,1.24,29.61c-8.82,3.21-70.84,4.25-90.93,1.69c-0.3-0.3-0.61-0.59-0.9-0.9c-0.28-0.31-0.72-0.62-0.76-0.97
		c-0.34-3.77-0.88-7.55-0.88-11.32c0.05-59.27,0.17-118.54,0.34-177.81C1143.71,131.19,1144.5,130.01,1145.16,128.2z"/>
	<path class="st0" d="M880.57,127.89c0,10.76,0,21.08,0,32.62c-18.34,2.77-36.96-0.57-56.37,2.11c-1.78,13.52-0.91,26.79-0.53,41.75
		c19.34,0.26,37.7,0.5,56.5,0.75c2.39,11.88,1.97,22.6,0.34,35.01c-18.71,0.18-37.07,0.36-57.06,0.56
		c-0.49,28.17,0.11,55.07-0.37,82.77c-12.25,0-22.95,0-35.4,0c-0.06-65.46-0.01-130.05-0.01-193.9
		C797.81,125.34,863.19,124.35,880.57,127.89z"/>
	<path class="st0" d="M965.49,128.65c12.19-3.3,78.69-3.65,92.11-0.94c3.73,10.1,1.55,20.88,1.51,31.81
		c-9.72,3.76-19.08,1.57-28.19,1.95c-9.21,0.38-18.45,0.08-28.72,0.08c-1.95,14.57-1.05,27.84-0.69,42.8
		c19.34,0.26,37.69,0.51,56.38,0.77c3.01,11.86,1.36,22.59,1.15,34.98c-19.39,0.2-37.76,0.38-57.75,0.58
		c-0.49,28.15,0.11,55.05-0.37,82.76c-12.25,0-22.94,0-35.38,0C965.43,258,965.51,193.42,965.49,128.65z"/>
	<path class="st0" d="M1620.96,161.81c-13.75,0-24.93,0-36.27,0c-3.17-12.03-1.59-22.37-1.22-33.31c3.41-0.98,6.12-2.43,8.84-2.45
		c30.87-0.16,61.75-0.14,92.62-0.04c2.41,0.01,4.83,0.96,6.92,1.4c3.37,9.26,3.73,16.21,1.73,32.4c-11.01,4.21-23.12-0.16-36.1,2.97
		c-0.29,4.49-0.87,9.36-0.88,14.22c-0.07,43.62-0.04,87.23-0.04,130.85c0,4.62,0,9.24,0,14.96c-11.46,2.78-22.25,1.15-34.59,1.37
		c-0.37-5.52-0.97-10.37-0.97-15.22c-0.07-43.19-0.04-86.38-0.04-129.58C1620.96,174.42,1620.96,169.44,1620.96,161.81z"/>
</g>
</svg>
