<?xml version="1.0" encoding="utf-8"?>
<!-- Generator: Adobe Illustrator 26.3.0, SVG Export Plug-In . SVG Version: 6.00 Build 0)  -->
<svg version="1.1" id="Capa_1" xmlns="http://www.w3.org/2000/svg" xmlns:xlink="http://www.w3.org/1999/xlink" x="0px" y="0px"
	 viewBox="0 0 307.87 440.92" style="enable-background:new 0 0 307.87 440.92;" xml:space="preserve">
<style type="text/css">
	.st0{fill:#FFBE58;}
</style>
<g>
	<path class="st0" d="M92.21,351.67c7.36-0.43,13.5,1.76,19.94,3.59c0.78,2.98,1.55,5.77,2.25,8.58
		c2.93,11.91,7.74,22.93,15.04,32.85c8.36,11.36,19.49,18.55,33.05,21.93c6.97,1.74,14.01,3.11,21.31,2.99
		c13.53-0.23,25.95-4.13,37.54-10.86c9.61-5.58,18.15-12.62,25.51-20.91c6.82-7.68,12.74-16.08,17.97-24.97
		c10.22-17.4,16.84-36.13,20.71-55.85c1.15-5.83,1.56-11.82,2.09-17.76c0.47-5.18,1.16-10.42,0.82-15.57
		c-0.61-9.45-1.32-18.97-5.86-27.64c-5.14-9.83-12.22-17.87-21.26-24.35c-14.96-10.74-31.77-17.21-49.42-21.54
		c-11.12-2.72-22.44-4.68-33.74-6.54c-5.4-0.89-10.97-0.88-16.47-1.06c-5.22-0.17-10.45,0.08-15.67-0.06
		c-13.39-0.36-26.58,1.35-39.66,3.9c-12.19,2.37-24.19,5.56-35.82,10c-9.49,3.62-18.47,8.27-26.9,13.96
		c-8.01,5.4-14.62,12.23-19.27,20.65c-5.69,10.31-6.4,21.23-2.38,32.42c4.28,11.89,12.25,20.62,22.41,27.83
		c12.71,9.02,26.93,14.53,41.61,19.14c0.55,0.17,1.17,0.09,2,0.14c0.86-3.92,0.57-7.68,0.18-11.83c-1.61-0.56-3.13-1.26-4.73-1.61
		c-13.76-2.98-26.19-8.95-36.87-17.94c-6.19-5.21-11.5-11.75-12.9-20.19c-1.88-11.38,0.03-21.92,7.94-30.97
		c6.87-7.86,15.13-13.55,24.43-18.21c13.32-6.67,27.47-10.45,41.92-13.36c7.18-1.45,14.42-2.65,21.68-3.61
		c5.14-0.68,10.36-0.92,15.56-1.04c7.06-0.17,14.13-0.14,21.2-0.02c10.11,0.17,20.15,1.18,30.03,3.29
		c8.67,1.84,17.41,3.62,25.86,6.24c13.53,4.19,26.61,9.73,37.63,18.85c8.3,6.88,15.77,14.73,19.03,25.49
		c2.15,7.11,2.96,14.4,1.74,21.79c-0.62,3.77-1.13,7.61-2.27,11.23c-2.74,8.75-7.48,16.28-13.5,23.3
		c-7.36,8.6-16.36,14.79-26.18,19.8c-9.15,4.67-18.94,7.86-28.99,10.27c-9.7,2.33-19.5,3.81-29.41,4.63
		c-5.64,0.47-11.3,0.65-16.95,0.98c-5.04,0.29-10.08,0.96-15.1,0.79c-9.16-0.31-18.3-1.17-27.45-1.68
		c-8.88-0.49-17.62-1.93-26.3-3.77c-19.94-4.24-39.04-10.76-56.41-21.64c-11.43-7.17-21.11-16.39-28.49-27.7
		c-4.72-7.24-7.2-15.5-8.79-24.07c-1.88-10.1-0.58-19.87,2.27-29.5c2.25-7.6,6.28-14.37,11.59-20.23
		c12.28-13.55,27.2-23.26,44.17-29.95c10.72-4.23,21.52-8.18,32.81-10.52c8.37-1.74,16.81-3.16,25.27-4.37
		c6.49-0.92,13.06-1.33,19.6-1.86c5.03-0.4,10.08-1,15.1-0.84c8.7,0.29,17.38,1.11,26.07,1.69c15.34,1.02,30.31,4.16,45.02,8.42
		c7.93,2.3,15.75,5.15,23.36,8.37c11.18,4.73,21.79,10.66,31.24,18.35c11.98,9.76,21.67,21.42,26.33,36.39
		c1.98,6.36,3.35,13.03,3.34,19.88c-0.01,5.04,0.91,10.09,0.79,15.12c-0.41,16.89-2.59,33.52-7.43,49.81
		c-2.9,9.75-6.28,19.32-10.69,28.4c-5.96,12.29-12.73,24.22-21.68,34.64c-5.89,6.86-12.1,13.51-18.74,19.64
		c-9.07,8.39-19.68,14.56-31.04,19.43c-7.81,3.35-16.01,5.6-24.37,6.25c-8.04,0.63-16.21-0.26-24.32-0.47
		c-7-0.18-13.58-2.29-20.07-4.64c-8.27-3-15.71-7.37-22.65-12.87c-17.79-14.09-26.25-33.5-31.88-54.62
		c-0.95-3.55-1.76-7.15-2.46-10.75C92.22,355.73,92.33,354.03,92.21,351.67z M109.27,327c1.78,0.46,3.38,1.06,5.02,1.27
		c10.17,1.28,20.36,1.97,30.64,2.03c16.56,0.09,33.01-0.54,49.32-3.77c14.36-2.84,28.38-6.67,41.12-14.08
		c4.73-2.76,9.54-5.77,13.38-9.61c5.67-5.68,9.66-12.69,11.65-20.6c2.41-9.57,0.98-18.37-5.02-26.48
		c-4.79-6.48-11.19-10.84-17.94-14.78c-11.11-6.49-23.4-10.11-35.79-12.9c-10.69-2.41-21.66-3.94-32.59-4.74
		c-11.9-0.87-23.93-0.66-35.79,0.95c-9.36,1.26-18.73,2.59-27.95,4.99c-11.9,3.1-23.62,6.54-34.49,12.43
		c-6.27,3.4-11.98,7.48-15.79,13.71c-3.28,5.35-3.59,10.78,0.43,15.86c1.98,2.51,4.17,5.02,6.75,6.86
		c12.03,8.6,25.36,13.47,40.31,13.32c1.62-0.02,3.25,0.18,5.06,0.28C108.58,303.63,106.75,315.19,109.27,327z"/>
	<path class="st0" d="M183.3,23.11c3.82-0.03,6.05,2.89,8.45,4.98c9.22,8.03,15.3,18.09,16.41,30.4
		c1.05,11.67,0.22,23.28-4.31,34.37c-3.65,8.93-8.01,17.66-9.55,27.3c-1.48,9.34-1.51,18.62,2.6,27.48
		c0.54,1.16,0.88,2.42,1.66,4.61c-2.09-0.6-3.32-0.67-4.22-1.25c-9.5-6.1-15.55-14.87-17.96-25.74c-2.04-9.2-1.65-18.59,1.44-27.64
		c2.82-8.26,5.79-16.48,8.79-24.68c3.01-8.22,4.06-16.75,3.17-25.36c-0.68-6.55-2.63-12.91-5.66-18.86
		C183.27,27.05,181.8,25.35,183.3,23.11z"/>
	<path class="st0" d="M154.61,129.18c-1.51-0.92-3.18-1.65-4.49-2.8c-7.77-6.8-14.24-14.61-15.88-25.14
		c-1.26-8.03-1.33-16.24,0.98-24.17c1.88-6.46,3.88-12.92,6.43-19.13c3.53-8.59,6.16-17.43,6.53-26.62
		c0.22-5.53-1.17-11.22-2.46-16.69c-0.94-3.99-2.91-7.73-4.41-11.58c-0.32-0.82-0.6-1.66-1.01-2.8c0.88-0.09,1.57-0.39,1.99-0.17
		c4.35,2.29,8.47,4.88,11.62,8.78c1.44,1.78,3.07,3.43,4.41,5.28c4.22,5.84,6.38,12.5,7.66,19.52c2.75,15.12-1.07,29.14-6.96,42.85
		c-4.25,9.9-7.98,20.05-7.64,30.97c0.16,5.26,1.89,10.49,2.99,15.71c0.36,1.71,0.99,3.37,1.5,5.06
		C155.44,128.56,155.02,128.87,154.61,129.18z"/>
</g>
</svg>
