<?xml version="1.0" encoding="utf-8"?>
<!-- Generator: Adobe Illustrator 26.3.0, SVG Export Plug-In . SVG Version: 6.00 Build 0)  -->
<svg version="1.1" xmlns="http://www.w3.org/2000/svg" xmlns:xlink="http://www.w3.org/1999/xlink" x="0px" y="0px"
	 viewBox="0 0 478.24 500" style="enable-background:new 0 0 478.24 500;" xml:space="preserve">
<style type="text/css">
	.st0{fill:#6A9DC4;}
	.st1{fill:#C746AC;}
	.st2{opacity:0.2;fill:#46134B;}
	.st3{fill:#FFD7B5;}
	.st4{fill:#FFC6A6;}
	.st5{fill:#46134B;}
	.st6{fill:#FF918B;}
	.st7{fill:#FFB38D;}
	.st8{fill:#B364AA;}
	.st9{fill:#FFAC7E;}
	.st10{fill:#CC574A;}
	.st11{fill:#FF8B40;}
	.st12{fill:#FFB240;}
	.st13{fill:#451378;}
	.st14{fill:#FFFFFF;}
</style>
<g id="BACKGROUND">
</g>
<g id="OBJECTS">
	<g>
		<path class="st0" d="M474.99,263.66c0,67.08-27.96,127.67-72.85,170.66c-40.5,38.83-94.83,63.39-154.86,65.51
			c-2.86,0.12-5.72,0.17-8.6,0.17c-2.76,0-5.52-0.05-8.28-0.15c-64.72-2.22-122.81-30.48-164.18-74.6
			C26.61,383,2.34,326.17,2.34,263.66c0-130.52,105.81-236.34,236.34-236.34S474.99,133.14,474.99,263.66z"/>
		<path class="st1" d="M365.95,277.65c-39.35-10.12-35.44-52.16-20.62-99.95c14.82-47.79-14.58-97.18-37.45-111.81
			c-36.41-23.27-112.76-23.91-149.17-0.64c-22.88,14.62-52.27,64.01-37.45,111.81c14.82,47.79,19.72,95.03-20.62,99.95
			c-40.33,4.92-62.11,61.96-50.17,96.47c13.31,38.45,36.59,86.11,135,25c23.6-14.65,38.58-40.99,47.74-72.55
			c9.14,31.84,24.16,58.44,47.92,73.19c98.41,61.11,133.86,19.65,142.39-12.68C437.71,332.57,418.66,291.21,365.95,277.65z"/>
		<path class="st2" d="M178.46,234.83c0,0,1.42,51.85-47.14,71.63c-48.56,19.78-34.11,77.79,47.15,108.59s191.75-12.85,180.65-76.09
			c-11.1-63.23-82.76-16.96-75.93-108.93L178.46,234.83z"/>
		<g>
			<g>
				<path class="st3" d="M402.14,434.32c-40.5,38.83-94.83,63.39-154.86,65.51c-4.88,0.02-9.73,0.02-14.61,0.02h-2.27
					c-64.72-2.22-122.81-30.48-164.18-74.6c12.52-33.7,35.23-53.81,57.35-66.67c2.51-1.48,5.12-2.86,7.78-4.14
					c3.25-1.58,6.58-3.03,9.9-4.36c5.44-2.19,10.94-4.09,16.21-5.76c7.71-2.44,14.98-4.43,21.09-6.16
					c10.25-2.93,17.17-5.2,17.17-7.91v-64.62c0-10.89,0-18.7,0-18.7h73.88c0,0,0,5.89,0,14.59v68.74c0,4.04,14.88,7.07,33.53,12.71
					c3.79,1.13,7.76,2.39,11.78,3.79c4.31,1.48,8.72,3.15,13.06,5.03c3.62,1.55,7.22,3.25,10.72,5.12c1.9,1.01,3.77,2.07,5.62,3.18
					C367.53,374.16,390.96,396.48,402.14,434.32z"/>
			</g>
			<path class="st4" d="M269.62,261.52v47.06c-8.38,6.53-19.66,12.39-33.73,13.3c-20.5,1.31-33.28-7.32-40.16-14.31v-41.93
				l72.18-6.75L269.62,261.52z"/>
			<path class="st3" d="M154.77,106.66c0,0-25.04,98.46-0.65,145.7c12.2,23.62,46.92,38.16,78.89,38.82
				c31.97,0.67,61.2-12.54,76.51-33.26c30.63-41.45-2.23-151.26-2.23-151.26S256.79,52.33,154.77,106.66z"/>
			<g>
				<path class="st3" d="M149.02,189.93c0,0-18.83-26.67-32.54-3.26c-9.74,16.64,8.49,52.62,31.64,37.12L149.02,189.93z"/>
			</g>
			<g>
				<path class="st3" d="M316.74,189.7c0,0,18.83-26.67,32.54-3.26c9.74,16.64-8.49,52.62-31.64,37.12L316.74,189.7z"/>
			</g>
			<g>
				<g>
					<path class="st5" d="M202.75,175.02c0,5.37-4.32,9.73-9.66,9.73c-5.33,0-9.66-4.36-9.66-9.73c0-5.37,4.32-9.73,9.66-9.73
						C198.43,165.29,202.75,169.65,202.75,175.02z"/>
					<path class="st5" d="M281.93,175.02c0,5.37-4.32,9.73-9.66,9.73c-5.33,0-9.66-4.36-9.66-9.73c0-5.37,4.32-9.73,9.66-9.73
						C277.61,165.29,281.93,169.65,281.93,175.02z"/>
				</g>
			</g>
			<path class="st6" d="M180.91,200.8c-4.09,6.26-13.12,7.61-20.17,3c-7.05-4.6-9.45-13.41-5.36-19.67c4.09-6.26,13.12-7.61,20.17-3
				C182.59,185.73,185,194.54,180.91,200.8z"/>
			<path class="st6" d="M284.55,200.8c4.09,6.26,13.12,7.61,20.17,3c7.05-4.6,9.45-13.41,5.36-19.67c-4.09-6.26-13.12-7.61-20.17-3
				C282.87,185.73,280.47,194.54,284.55,200.8z"/>
			<path class="st7" d="M229.78,205.4c-3.69,0-7.29-1.28-9.26-5.22c-1.29-2.59,0.54-4.44,2.49-6.41c2.05-2.07,4.6-4.66,5.37-9.22
				c1.86-11-2.53-29.49-2.57-29.67c-0.16-0.66,0.25-1.33,0.91-1.49c0.66-0.15,1.33,0.25,1.49,0.91c0.19,0.78,4.55,19.16,2.61,30.66
				c-0.9,5.33-3.88,8.35-6.05,10.55c-2,2.02-2.48,2.69-2.03,3.57c3.71,7.42,15.29,1.86,15.41,1.79c0.61-0.29,1.35-0.05,1.65,0.57
				c0.3,0.61,0.05,1.35-0.56,1.65C236.88,204.23,233.29,205.4,229.78,205.4z"/>
			<path class="st8" d="M178.16,159.64c-0.67,0-1.34-0.27-1.82-0.8c-0.91-1-0.85-2.55,0.15-3.46c0.37-0.34,9.21-8.25,26.71-5.09
				c1.34,0.24,2.23,1.53,1.98,2.86c-0.24,1.34-1.52,2.23-2.86,1.99c-14.94-2.71-22.2,3.61-22.5,3.88
				C179.34,159.43,178.75,159.64,178.16,159.64z"/>
			<path class="st8" d="M283.2,157.05c-0.59,0-1.18-0.21-1.66-0.64c-0.33-0.29-7.59-6.58-22.5-3.87c-1.34,0.24-2.62-0.65-2.86-1.99
				c-0.24-1.34,0.65-2.62,1.98-2.86c17.51-3.16,26.34,4.75,26.71,5.09c1,0.92,1.06,2.48,0.14,3.48
				C284.52,156.78,283.86,157.05,283.2,157.05z"/>
			<path class="st9" d="M135.92,189.97l5.59,27.24c0,0-8.11,3.13-11.13-2.91c-3.02-6.04,1.04-10.3,1.04-10.3s-10.71-1.18-10.26-9.79
				C121.61,185.6,134.31,182.15,135.92,189.97z"/>
			<path class="st9" d="M330.42,189.97l-5.59,27.24c0,0,8.11,3.13,11.13-2.91c3.02-6.04-1.04-10.3-1.04-10.3s10.71-1.18,10.26-9.79
				C344.73,185.6,332.02,182.15,330.42,189.97z"/>
		</g>
		<path class="st1" d="M286.86,82.51c-25.63-5.27-93.77,0-93.77,0l-49.64,24.21l-1.95,36.53c0,0,8.29-0.13,21.34-0.29l5.3-20.85
			l2.94,20.75c1.08-0.01,2.19-0.03,3.31-0.04l9.04-27.76l2.1,27.63c17.39-0.19,37.95-0.39,57.9-0.49l2.42-38.03l3.98,38
			c4.37-0.02,8.68-0.03,12.91-0.04l19.19-42.45l3.43,42.47c20.09,0.1,35.36,0.41,39.47,1.11C340.05,145.81,312.5,87.78,286.86,82.51
			z"/>
		<path class="st10" d="M234.92,225.73c-14.17,0-21.32-7.12-21.7-7.5c-0.95-0.97-0.93-2.53,0.04-3.48c0.97-0.95,2.52-0.94,3.48,0.03
			c0.42,0.42,9.99,9.66,29.71,4.41c1.32-0.35,2.66,0.43,3.01,1.75c0.35,1.31-0.43,2.66-1.75,3.01
			C242.95,225.22,238.69,225.73,234.92,225.73z"/>
		<path class="st11" d="M210.52,48.12c0,0,5.34-45.59-26.46-48.12c-7.74,12.67-10.9,19.67-10.9,19.67s30.98,9.65,25.46,36.25
			L210.52,48.12z"/>
		<path class="st12" d="M352.97,91.6c-5.37,11.83-12.24,20.15-12.24,20.15s-120.1-29.37-222.98,28.87c0,0-18.75-7.32-19.93-32.96
			c-0.59-13.11,6.5-26.78,21.14-37.89c13.43-10.2,33.23-18.23,59.2-21.66c43.19-5.69,115.35-50.65,164.1-14.56
			C365.26,50.61,360.65,74.68,352.97,91.6z"/>
		<path class="st11" d="M352.97,91.6c-5.37,11.83-12.24,20.15-12.24,20.15s-120.1-29.37-222.98,28.87c0,0-18.75-7.32-19.93-32.96
			c-0.59-13.11,6.5-26.78,21.14-37.89c-3.23,17.57-1.03,39.2,30.13,37.52C195.57,104.78,291.18,47.21,352.97,91.6z"/>
		<path class="st11" d="M402.14,434.32c-21.46,20.6-46.81,37.15-74.82,48.48c-10.72,4.34-21.83,7.91-33.26,10.64
			c-15.08,3.65-30.75,5.81-46.78,6.38c-4.88,0.02-9.73,0.02-14.61,0.02h-2.27c-17.98-0.62-35.45-3.25-52.2-7.66
			c-11.55-3.05-22.79-6.97-33.58-11.65c-29.84-12.96-56.47-31.9-78.39-55.28c12.52-33.7,35.23-53.81,57.35-66.67
			c2.51-1.48,5.12-2.86,7.78-4.14c3.25-1.58,6.58-3.03,9.9-4.36c5.44-2.19,10.94-4.09,16.21-5.76c2.29-0.74,4.56-1.4,6.75-2.07
			c0.02-0.02,0.02-0.02,0.05,0c0.07-0.02,0.12-0.05,0.17-0.05c5.1-1.53,9.88-2.86,14.12-4.04c1.85,13.45,11.43,56.34,59.08,57.55
			c39.32,0.99,57.85-32.35,65.51-52.75c3.35,1.01,6.85,2.09,10.4,3.33c0,0,0.05,0,0.12,0.02c0.42,0.15,0.84,0.3,1.26,0.44
			c4.31,1.48,8.72,3.15,13.06,5.03c3.62,1.55,7.22,3.25,10.72,5.12c1.9,1.01,3.77,2.07,5.62,3.18
			C367.53,374.16,390.96,396.48,402.14,434.32z"/>
		<path class="st2" d="M327.32,482.8c-10.72,4.34-21.83,7.91-33.26,10.64c-15.08,3.65-30.75,5.81-46.78,6.38
			c-4.88,0.02-9.73,0.02-14.61,0.02h-2.27c-17.98-0.62-35.45-3.25-52.2-7.66c-11.55-3.05-22.79-6.97-33.58-11.65l18.6-61.52
			c0,0,33.19,115.86,146.73,41.64C317.44,468.39,323.13,475.78,327.32,482.8z"/>
		<path class="st13" d="M178.2,492.19c-43.51-11.48-82.11-35.08-111.97-66.94c0,0,11.09-63.88,14.66-66.74
			c3.45-2.76,78.64-15.47,83.34-16.26c0.02-0.02,0.02-0.02,0.05,0c0.12-0.05,0.17-0.05,0.17-0.05L178.2,492.19z"/>
		<path class="st13" d="M402.14,434.32c-29.66,28.46-66.76,49.22-108.08,59.13l19.49-147.15c0,0,0.05,0,0.12,0.02
			c3.38,0.64,74.45,14.34,77.97,17.12C395.22,366.3,402.14,434.32,402.14,434.32z"/>
		<path class="st14" d="M247.08,417.2c0-4.65-3.77-8.42-8.42-8.42s-8.42,3.77-8.42,8.42c0,4.65,3.77,8.42,8.42,8.42
			S247.08,421.85,247.08,417.2z"/>
	</g>
</g>
</svg>
