<?xml version="1.0" encoding="utf-8"?>
<!-- Generator: Adobe Illustrator 26.3.0, SVG Export Plug-In . SVG Version: 6.00 Build 0)  -->
<svg version="1.1" xmlns="http://www.w3.org/2000/svg" xmlns:xlink="http://www.w3.org/1999/xlink" x="0px" y="0px"
	 viewBox="0 0 478.24 500" style="enable-background:new 0 0 478.24 500;" xml:space="preserve">
<style type="text/css">
	.st0{fill:#FFB240;}
	.st1{fill:#6A9DC4;}
	.st2{fill:#98475F;}
	.st3{fill:#7A2D53;}
	.st4{fill:#46134B;}
	.st5{fill:#FF918B;}
	.st6{fill:#88B1D0;}
	.st7{fill:#FFFFFF;}
	.st8{fill:#C746AC;}
</style>
<g id="BACKGROUND">
</g>
<g id="OBJECTS">
	<g>
		<path class="st0" d="M476.95,260.69c0,65.38-26.4,124.61-69.07,167.6c-41.26,41.53-97.69,67.91-160.29,70.09
			c-2.8,0.1-5.63,0.15-8.45,0.15c-2.9,0-5.8-0.05-8.7-0.17c-62.88-2.23-119.55-28.93-160.78-70.83
			C27.38,384.58,1.29,325.7,1.29,260.69c0-131.35,106.49-237.84,237.84-237.84S476.95,129.34,476.95,260.69z"/>
		<path class="st1" d="M355.58,95.57c13.74-24.18-5.22-46.17-23.77-39.57c4.54-26.38-24.33-29.68-24.33-29.68
			s-9.61-27.48-36.55-12.09C259.57-5.77,246.91,2.19,240.58,8.4c-6.33-6.21-18.99-14.17-30.36,5.82
			c-26.93-15.39-36.55,12.09-36.55,12.09s-28.86,3.3-24.33,29.68c-18.55-6.6-37.51,15.39-23.77,39.57
			c-19.79,6.6-20.34,39.57-1.65,52.17c-8.24,22.49,21.44,30.83,21.44,30.83l95.21-53.24l95.21,53.24c0,0,29.68-8.34,21.44-30.83
			C375.92,135.14,375.37,102.16,355.58,95.57z"/>
		<g>
			<g>
				<path class="st2" d="M407.88,428.29c-41.26,41.53-97.69,67.91-160.29,70.09h-8.97c-2.73,0-5.45,0-8.18-0.03
					c-62.88-2.23-119.55-28.93-160.78-70.83c11.88-35.53,34.78-56.75,57.4-70.24c0.6-0.37,1.19-0.72,1.78-1.07
					c2.53-1.49,5.16-2.88,7.83-4.17c3.27-1.59,6.62-3.05,9.97-4.39c5.48-2.21,11.01-4.12,16.31-5.8c20.8-6.6,38.5-9.79,38.5-14.16
					v-65.03c0-10.96,0-18.82,0-18.82h74.35c0,0,0,5.93,0,14.68v69.17c0,4.88,21.72,8.31,45.59,16.61c4.34,1.49,8.78,3.17,13.14,5.06
					c3.64,1.56,7.26,3.27,10.79,5.16c1.91,1.02,3.79,2.08,5.65,3.2c0.35,0.22,0.72,0.42,1.07,0.64
					C374.21,372.04,396.35,393.28,407.88,428.29z"/>
			</g>
			<polyline class="st0" points="135.21,406.73 347.8,406.73 336.93,457.71 244.66,485.89 135.21,436.74 			"/>
			<path class="st3" d="M275.8,258.53v47.35c-8.43,6.57-19.78,12.47-33.94,13.39c-20.63,1.31-33.5-7.36-40.41-14.4v-42.2l72.64-6.79
				L275.8,258.53z"/>
			<path class="st2" d="M147.36,102.69c0,0-17.89,99.09,7.97,146.63c12.93,23.77,49.38,37.66,83.27,38.33
				c33.9,0.67,65.24-11.88,81.48-32.73c32.47-41.71,8.05-152.22,8.05-152.22S255.5,48.01,147.36,102.69z"/>
			<g>
				<path class="st2" d="M149.35,175.83c0,0-20.09-28.46-34.71-3.48c-10.39,17.75,9.06,56.14,33.76,39.61L149.35,175.83z"/>
			</g>
			<g>
				<path class="st2" d="M328.3,175.58c0,0,20.09-28.45,34.71-3.48c10.39,17.75-9.05,56.14-33.76,39.61L328.3,175.58z"/>
			</g>
			<g>
				<g>
					<path class="st4" d="M208.51,171.49c0,5.41-4.35,9.79-9.72,9.79s-9.72-4.38-9.72-9.79c0-5.41,4.35-9.79,9.72-9.79
						S208.51,166.08,208.51,171.49z"/>
					<path class="st4" d="M288.19,171.49c0,5.41-4.35,9.79-9.72,9.79c-5.37,0-9.72-4.38-9.72-9.79c0-5.41,4.35-9.79,9.72-9.79
						C283.84,161.7,288.19,166.08,288.19,171.49z"/>
				</g>
			</g>
			<path class="st5" d="M186.53,197.43c-4.11,6.3-13.2,7.65-20.29,3.02c-7.1-4.63-9.51-13.5-5.4-19.8c4.11-6.3,13.2-7.65,20.29-3.02
				C188.22,182.26,190.64,191.13,186.53,197.43z"/>
			<path class="st5" d="M290.83,197.43c4.11,6.3,13.2,7.65,20.29,3.02c7.1-4.63,9.51-13.5,5.4-19.8c-4.11-6.3-13.2-7.65-20.29-3.02
				C289.13,182.26,286.71,191.13,290.83,197.43z"/>
			<path class="st3" d="M235.7,202.06c-3.71,0-7.34-1.29-9.32-5.25c-1.21-2.42,0.63-4.62,2.76-7.16c1.87-2.23,4.2-5.01,5.18-8.68
				c1.28-4.8,0.39-7.61-0.55-10.59c-1.58-4.98-3.21-10.14,5.8-23.34c0.39-0.57,1.16-0.71,1.72-0.33c0.57,0.39,0.71,1.16,0.33,1.72
				c-8.32,12.21-6.94,16.57-5.48,21.19c0.96,3.04,2.05,6.48,0.58,11.97c-1.12,4.2-3.65,7.21-5.67,9.63
				c-1.81,2.16-2.9,3.54-2.44,4.46c3.73,7.46,15.39,1.87,15.51,1.81c0.61-0.3,1.36-0.05,1.66,0.57c0.3,0.61,0.05,1.36-0.57,1.66
				C242.85,200.88,239.24,202.06,235.7,202.06z"/>
			<path class="st1" d="M177.64,158.1c-0.4,0-0.8-0.09-1.17-0.3c-1.2-0.65-1.65-2.15-1.01-3.35c0.14-0.25,13.89-25.22,38.71-19.43
				c1.33,0.31,2.16,1.64,1.85,2.98c-0.31,1.33-1.64,2.17-2.98,1.85c-21.09-4.91-32.73,16.06-33.21,16.95
				C179.37,157.63,178.52,158.1,177.64,158.1z"/>
			<path class="st1" d="M298.78,158.1c-0.89,0-1.76-0.48-2.2-1.33c-0.43-0.83-10.87-20.15-31.92-15.26
				c-1.33,0.31-2.67-0.52-2.98-1.85c-0.31-1.33,0.52-2.67,1.85-2.98c24.85-5.8,37.32,17.55,37.44,17.79
				c0.63,1.21,0.16,2.71-1.05,3.34C299.56,158.01,299.17,158.1,298.78,158.1z"/>
			<path class="st3" d="M135.37,175.88l5.96,29.06c0,0-8.65,3.34-11.88-3.11c-3.22-6.45,1.11-10.99,1.11-10.99
				s-11.43-1.26-10.94-10.44C120.11,171.21,133.66,167.52,135.37,175.88z"/>
			<path class="st3" d="M342.9,175.88l-5.96,29.06c0,0,8.65,3.34,11.88-3.11c3.22-6.45-1.11-10.99-1.11-10.99
				s11.43-1.26,10.94-10.44C358.16,171.21,344.61,167.52,342.9,175.88z"/>
		</g>
		<path class="st1" d="M225.05,222.17c0,0-0.67,9.21,17.44,8.12c18.11-1.09,13.6-9.34,13.6-9.34S235.38,218.95,225.05,222.17z"/>
		<path class="st6" d="M219.62,220.46c0,0,6.07,2.84,20.42,2.2c14.35-0.64,20.78-2.83,20.78-2.83s-6.16-1.71-10.3-4.11
			c-3.44-1.99-4.95-8.05-10.65-1.49c-6.32-6.46-8.64,0.62-11.83,3.11C225.04,219.7,219.62,220.46,219.62,220.46z"/>
		<path class="st1" d="M141.38,167.44c0,0,12.21-5.18,9.27-20.86c12.13-6.86,17.28-32.59,9.93-41.05
			c23.9,8.82,39.47-12.13,40.87-19.12c22.36,27.57,51.41-2.94,51.41-2.94s19.66,37.5,49.35,26.1
			c-1.93,19.48,20.13,15.88,20.13,15.88s-12.5,24.07,5.45,30.4c2.64,12.54,8.91,15.62,8.91,15.62s14.32-36.76,12.48-44
			c-1.84-7.24-39.71-61.28-39.71-61.28l-38.23-6.25l-32.61-2.57l-72.9,11.76l-30.51,31.98L141.38,167.44z"/>
		<path class="st7" d="M121.28,255.7c-12.29,0-22.3-10-22.3-22.3s10-22.3,22.3-22.3s22.3,10,22.3,22.3S133.58,255.7,121.28,255.7z
			 M121.28,213.59c-10.93,0-19.82,8.89-19.82,19.82s8.89,19.82,19.82,19.82c10.93,0,19.82-8.89,19.82-19.82
			S132.21,213.59,121.28,213.59z"/>
		<path class="st7" d="M356.18,255.7c-12.29,0-22.3-10-22.3-22.3s10-22.3,22.3-22.3c12.29,0,22.3,10,22.3,22.3
			S368.47,255.7,356.18,255.7z M356.18,213.59c-10.93,0-19.82,8.89-19.82,19.82s8.89,19.82,19.82,19.82
			c10.93,0,19.82-8.89,19.82-19.82S367.11,213.59,356.18,213.59z"/>
		<path class="st8" d="M407.88,428.29c-41.26,41.53-97.69,67.91-160.29,70.09h-8.97c-2.73,0-5.45,0-8.18-0.03
			c-62.88-2.23-119.55-28.93-160.78-70.83c10.14-30.3,28.29-50.21,47.43-63.77c3.32-2.33,6.64-4.49,9.97-6.47l117.62,113.97
			l107.38-112.88c3.64,2.26,7.31,4.71,10.91,7.41C381.22,379.43,398.26,399.06,407.88,428.29z"/>
		<path class="st7" d="M362.95,365.79l-118.29,120.1L117.08,363.76c3.32-2.33,6.64-4.49,9.97-6.47l117.62,113.97l107.38-112.88
			C355.69,360.63,359.36,363.09,362.95,365.79z"/>
	</g>
</g>
</svg>
