<?xml version="1.0" encoding="utf-8"?>
<!-- Generator: Adobe Illustrator 26.3.0, SVG Export Plug-In . SVG Version: 6.00 Build 0)  -->
<svg version="1.1" xmlns="http://www.w3.org/2000/svg" xmlns:xlink="http://www.w3.org/1999/xlink" x="0px" y="0px"
	 viewBox="0 0 478.24 500" style="enable-background:new 0 0 478.24 500;" xml:space="preserve">
<style type="text/css">
	.st0{fill:#6A9DC4;}
	.st1{fill:#D43E20;}
	.st2{fill:#FFD7B5;}
	.st3{fill:#FFC6A6;}
	.st4{fill:#46134B;}
	.st5{fill:#FF918B;}
	.st6{fill:#FFB38D;}
	.st7{fill:#AD3320;}
	.st8{fill:#FFAC7E;}
	.st9{fill:#FFB240;}
	.st10{fill:#FFFFFF;}
</style>
<g id="BACKGROUND">
</g>
<g id="OBJECTS">
	<g>
		<path class="st0" d="M476.95,250c0,65.03-26.08,123.97-68.4,166.91c-41.28,41.93-98.03,68.6-160.98,70.78
			c-2.8,0.1-5.6,0.15-8.43,0.15c-2.93,0-5.85-0.05-8.75-0.17c-62.5-2.26-118.88-28.64-160.06-70.14
			C27.65,374.54,1.29,315.35,1.29,250c0-131.35,106.49-237.84,237.84-237.84S476.95,118.65,476.95,250z"/>
		<path class="st1" d="M345.48,178.03c16.37-61.74,9.34-92.55-19.4-106.84c-12.55-32.38-34.12-22.32-34.12-22.32
			c-15.34-40.91-42.77-33.63-54.72-28.02c-11.96-5.61-39.38-12.89-54.72,28.02c0,0-21.57-10.07-34.12,22.32
			c-28.74,14.29-35.77,45.1-19.4,106.84c16.37,61.74-72.88,50.31-62.07,103.64c10.83,0,28.12,0,47.7,0l7.56-24.23l3.65,24.23
			c2.61,0,5.24,0,7.89,0l5.47-24.23l3.87,24.23c8.25,0,16.55,0,24.67,0l-1.41-9.52l5.25,9.52c24.5,0,46.84,0,59.8,0
			c7.35,0,11.71,0,11.71,0c14.02,0,39.02,0,65.87,0l11.61-37.15v37.15c9.96,0,19.98,0,29.63,0l1.85-21.37l10.41,21.37
			c18.5,0,34.73,0,45.08,0C418.36,228.33,329.1,239.76,345.48,178.03z"/>
		<g>
			<g>
				<path class="st2" d="M408.55,416.91c-41.28,41.93-98.03,68.6-160.98,70.78h-8.03c-3.05,0-6.1,0-9.15-0.03
					c-62.5-2.26-118.88-28.64-160.06-70.14c12.15-36.89,36.12-58.46,59.43-72c2.53-1.49,5.16-2.88,7.83-4.17
					c3.27-1.59,6.62-3.05,9.97-4.39c2.95-1.19,5.9-2.28,8.85-3.32c2.5-0.87,5.01-1.71,7.46-2.48c20.8-6.6,38.5-9.79,38.5-14.16
					v-65.03c0-10.96,0-18.82,0-18.82h74.36c0,0,0,5.93,0,14.68v69.17c0,4.88,21.72,8.31,45.59,16.61c2.01,0.69,4.04,1.41,6.07,2.21
					c2.36,0.89,4.71,1.83,7.07,2.85c3.64,1.56,7.26,3.27,10.78,5.16c1.91,1.02,3.79,2.08,5.65,3.2
					C374.26,360.6,396.79,381.75,408.55,416.91z"/>
			</g>
			<path class="st3" d="M276.72,247.84v47.35c-8.43,6.57-19.78,12.47-33.94,13.39c-20.63,1.31-33.5-7.36-40.41-14.4v-42.2
				l72.64-6.79L276.72,247.84z"/>
			<path class="st2" d="M156.38,92c0,0-16.31,89.17,7.26,136.71c11.79,23.77,45.02,59.02,75.92,59.69
				c30.9,0.67,59.48-33.24,74.28-54.09c29.6-41.71,7.34-142.3,7.34-142.3S254.97,37.32,156.38,92z"/>
			<g>
				<path class="st2" d="M150.27,165.14c0,0-20.09-28.46-34.71-3.48c-10.39,17.75,9.05,56.14,33.76,39.61L150.27,165.14z"/>
			</g>
			<g>
				<path class="st2" d="M329.21,164.89c0,0,20.09-28.45,34.71-3.48c10.39,17.75-9.05,56.14-33.76,39.61L329.21,164.89z"/>
			</g>
			<g>
				<g>
					<path class="st4" d="M209.42,160.8c0,5.41-4.35,9.79-9.72,9.79c-5.37,0-9.72-4.38-9.72-9.79c0-5.41,4.35-9.79,9.72-9.79
						C205.07,151.01,209.42,155.39,209.42,160.8z"/>
					<path class="st4" d="M289.11,160.8c0,5.41-4.35,9.79-9.72,9.79c-5.37,0-9.72-4.38-9.72-9.79c0-5.41,4.35-9.79,9.72-9.79
						C284.75,151.01,289.11,155.39,289.11,160.8z"/>
				</g>
			</g>
			<path class="st5" d="M202.32,201.61c-4.11,6.3-13.2,7.65-20.29,3.02c-7.1-4.63-9.51-13.49-5.4-19.8
				c4.11-6.3,13.2-7.65,20.29-3.02C204.01,186.45,206.43,195.31,202.32,201.61z"/>
			<path class="st5" d="M276.87,201.61c4.11,6.3,13.2,7.65,20.29,3.02c7.09-4.63,9.51-13.49,5.4-19.8
				c-4.11-6.3-13.2-7.65-20.29-3.02C275.17,186.45,272.75,195.31,276.87,201.61z"/>
			<path class="st6" d="M236.62,191.36c-3.71,0-7.34-1.29-9.32-5.25c-1.02-2.04,0.76-4.26,3-7.06c2.09-2.61,4.46-5.57,4.81-8.6
				c1.5-13.16-2.45-29.76-2.49-29.93c-0.16-0.67,0.25-1.33,0.91-1.5c0.67-0.14,1.34,0.25,1.5,0.92c0.17,0.69,4.09,17.18,2.54,30.79
				c-0.42,3.74-3.15,7.14-5.33,9.87c-1.21,1.51-3.03,3.78-2.72,4.4c3.73,7.46,15.39,1.87,15.51,1.81c0.61-0.3,1.36-0.05,1.66,0.57
				c0.3,0.61,0.05,1.36-0.57,1.66C243.77,190.19,240.15,191.36,236.62,191.36z"/>
			<path class="st7" d="M178.56,147.41c-0.56,0-1.13-0.19-1.6-0.58c-1.05-0.88-1.18-2.45-0.3-3.49c0.51-0.6,12.68-14.65,37.14-8.94
				c1.33,0.31,2.16,1.64,1.85,2.98c-0.31,1.33-1.64,2.18-2.98,1.85c-21.53-5-32.12,7.19-32.22,7.31
				C179.96,147.11,179.26,147.41,178.56,147.41z"/>
			<path class="st7" d="M299.7,147.41c-0.7,0-1.4-0.3-1.89-0.87c-0.44-0.52-10.86-12.29-32.23-7.32c-1.34,0.31-2.67-0.52-2.98-1.85
				c-0.31-1.33,0.52-2.67,1.85-2.98c24.45-5.71,36.63,8.34,37.14,8.94c0.88,1.05,0.75,2.61-0.3,3.49
				C300.83,147.22,300.26,147.41,299.7,147.41z"/>
			<path class="st8" d="M136.29,165.18l5.96,29.07c0,0-8.65,3.34-11.88-3.11c-3.22-6.45,1.11-10.99,1.11-10.99
				s-11.43-1.26-10.94-10.44C121.02,160.52,134.57,156.83,136.29,165.18z"/>
			<path class="st8" d="M343.81,165.18l-5.96,29.07c0,0,8.65,3.34,11.88-3.11c3.22-6.45-1.11-10.99-1.11-10.99
				s11.43-1.26,10.94-10.44C359.08,160.52,345.52,156.83,343.81,165.18z"/>
		</g>
		<path class="st7" d="M221.84,202.01l29,3.57C250.85,205.58,232.6,216.89,221.84,202.01z"/>
		<path class="st1" d="M142.25,125.94c0,0-5.82,67.45,19.89,126.92c-7.62-80.53,0-155.78,0-155.78s84.76,33.33,154.29,31.43
			c6.67,34.29,6.67,116.68,6.67,116.68s15.93-67.21,12.25-129.09c-3.68-61.88-30.76-52.36-30.76-52.36l-102.23-6.67l-51.48,22.24
			l-8.63,16.8"/>
		<path class="st9" d="M408.55,416.91c-40.09,40.71-94.78,67.07-155.58,70.54c-1.34,0.07-2.7,0.15-4.07,0.2
			c-0.45,0.02-0.89,0.02-1.34,0.05h-9.87c-1.26,0-2.55,0-3.82-0.03c-1.16,0.03-2.33,0-3.5,0c-62.5-2.26-118.88-28.64-160.06-70.14
			c6.35-19.26,15.92-34.36,26.92-46.29c0.57-0.62,1.14-1.21,1.71-1.81c5.28-5.53,10.88-10.34,16.59-14.58
			c0.69-0.5,1.36-1.02,2.06-1.49c4.02-2.88,8.11-5.48,12.15-7.83c2.53-1.49,5.16-2.88,7.83-4.17c0.27-0.12,0.55-0.27,0.84-0.4
			c0.82-0.4,1.66-0.79,2.5-1.14c2.18-1.02,4.41-1.96,6.62-2.85c2.95-1.19,5.9-2.28,8.85-3.32l89.18,62.38l82.81-60.2
			c2.36,0.89,4.71,1.83,7.07,2.85c3.64,1.56,7.26,3.27,10.78,5.16c0.12,0.05,0.22,0.12,0.35,0.2c0.77,0.4,1.56,0.84,2.33,1.26
			c0.99,0.57,1.98,1.14,2.98,1.74c5.23,3.17,10.49,6.77,15.59,10.88c0.67,0.5,1.31,1.04,1.96,1.59c5.11,4.22,10.07,8.98,14.7,14.31
			c0.55,0.62,1.09,1.26,1.61,1.88C394.98,386.76,402.99,400.27,408.55,416.91z"/>
		<path class="st10" d="M348.92,345.3l-103.36,86.97l-107.13-91.31c0.82-0.4,1.66-0.79,2.5-1.14l104.65,89.21l101.01-84.99
			C347.36,344.44,348.15,344.88,348.92,345.3z"/>
		<path class="st10" d="M369.45,359.51l-125.03,105.2L115.54,354.85c0.69-0.5,1.36-1.02,2.06-1.49l126.82,108.1l123.07-103.54
			C368.16,358.42,368.8,358.97,369.45,359.51z"/>
		<path class="st10" d="M98.95,369.43L237.7,487.69c-1.26,0-2.55,0-3.82-0.03L97.24,371.24C97.81,370.62,98.38,370.02,98.95,369.43z
			"/>
		<path class="st10" d="M385.76,375.7L252.97,487.44c-1.34,0.07-2.7,0.15-4.07,0.2l135.25-113.83
			C384.69,374.44,385.24,375.08,385.76,375.7z"/>
		<path class="st7" d="M186.58,67.7c0,0,30.49,55.68,144.67,52.29C269.66,115.32,186.58,67.7,186.58,67.7z"/>
		<path class="st7" d="M219.2,58.18c0,0,29.72,42.16,117.12,54.36C297.7,100.34,219.2,58.18,219.2,58.18z"/>
	</g>
</g>
</svg>
