<?xml version="1.0" encoding="utf-8"?>
<!-- Generator: Adobe Illustrator 26.3.0, SVG Export Plug-In . SVG Version: 6.00 Build 0)  -->
<svg version="1.1" xmlns="http://www.w3.org/2000/svg" xmlns:xlink="http://www.w3.org/1999/xlink" x="0px" y="0px"
	 viewBox="0 0 478.24 500" style="enable-background:new 0 0 478.24 500;" xml:space="preserve">
<style type="text/css">
	.st0{fill:#FFB240;}
	.st1{fill:#46134B;}
	.st2{fill:#98475F;}
	.st3{fill:#7A2D53;}
	.st4{fill:#FF918B;}
	.st5{fill:#572AAC;}
	.st6{fill:#451378;}
	.st7{fill:#7E2A20;}
	.st8{fill:#D43E20;}
	.st9{fill:#B5B1EE;}
	.st10{fill:#FFBC18;}
	.st11{fill:#FF9E18;}
	.st12{opacity:0.3;fill:#46134B;}
</style>
<g id="BACKGROUND">
</g>
<g id="OBJECTS">
	<g>
		<path class="st0" d="M476.95,258.41c0,65.06-26.11,123.99-68.43,166.93c-43.04,43.69-102.84,70.81-168.99,70.91h-0.5
			c-65.95-0.02-125.63-26.9-168.67-70.29C27.67,382.97,1.29,323.76,1.29,258.41c0-131.33,106.49-237.82,237.84-237.82
			S476.95,127.08,476.95,258.41z"/>
		<path class="st1" d="M142.25,179.15c0,0-5.29-84,8.02-95.45c13.31-11.45,170.24-15.52,178.94-0.36
			c8.71,15.16,12.78,79.6,8.64,95.81H142.25z"/>
		<path class="st1" d="M141.21,159.56c0,0-2.61,103.63,3.52,111.88c6.12,8.24,11.07-4.12,11.07-4.12s4.12,17.84,11.54,21.7
			c7.42,3.86,11.21-6.86,11.21-6.86s24.24,38.86,39.9,3.35s0-106.37,0-106.37L141.21,159.56z"/>
		<path class="st1" d="M338.93,159.56c0,0,2.61,103.63-3.52,111.88s-11.07-4.12-11.07-4.12s-4.12,17.84-11.54,21.7
			c-7.42,3.86-11.21-6.86-11.21-6.86s-24.24,38.86-39.9,3.35c-15.67-35.51,0-106.37,0-106.37L338.93,159.56z"/>
		<g>
			<g>
				<path class="st2" d="M408.52,425.34c-43.04,43.69-102.84,70.81-168.99,70.91h-0.5c-65.95-0.02-125.63-26.9-168.67-70.29
					c12.15-36.82,36.1-58.34,59.38-71.88c0.72-0.42,1.44-0.84,2.18-1.21c1.83-1.07,3.74-2.03,5.65-2.95
					c3.27-1.59,6.62-3.05,9.97-4.39c5.48-2.21,11.01-4.12,16.31-5.8c20.8-6.59,38.5-9.79,38.5-14.16v-65.03c0-10.96,0-18.82,0-18.82
					h74.36c0,0,0,5.93,0,14.68v69.17c0,4.88,21.72,8.31,45.59,16.61c4.34,1.49,8.78,3.17,13.14,5.06c3.64,1.56,7.26,3.27,10.78,5.16
					c0.57,0.3,1.14,0.62,1.71,0.94c1.34,0.72,2.63,1.49,3.94,2.26C374.23,369.13,396.74,390.23,408.52,425.34z"/>
			</g>
			<path class="st3" d="M276.72,256.4v47.35c-8.43,6.57-19.78,12.47-33.94,13.39c-20.63,1.31-33.5-7.36-40.41-14.4v-42.2l72.64-6.79
				L276.72,256.4z"/>
			<path class="st2" d="M152.93,100.56c0,0-18.24,107.95,6.31,155.48c12.27,23.77,48.12,40.24,80.3,40.91
				c32.18,0.67,66.98-17.67,82.39-38.53c30.82-41.71,2.59-157.86,2.59-157.86S255.59,45.88,152.93,100.56z"/>
			<g>
				<path class="st2" d="M150.27,173.69c0,0-20.09-28.45-34.71-3.48c-10.39,17.75,9.05,56.14,33.76,39.61L150.27,173.69z"/>
			</g>
			<g>
				<path class="st2" d="M329.21,173.45c0,0,20.09-28.45,34.71-3.48c10.39,17.75-9.05,56.14-33.76,39.61L329.21,173.45z"/>
			</g>
			<g>
				<g>
					<path class="st1" d="M209.42,169.36c0,5.41-4.35,0-9.72,0c-5.37,0-9.72,5.41-9.72,0c0-5.41,4.35-9.79,9.72-9.79
						C205.07,159.56,209.42,163.95,209.42,169.36z"/>
					<path class="st1" d="M289.11,169.36c0,5.41-4.35,0-9.72,0c-5.37,0-9.72,5.41-9.72,0c0-5.41,4.35-9.79,9.72-9.79
						C284.75,159.56,289.11,163.95,289.11,169.36z"/>
				</g>
			</g>
			<path class="st4" d="M187.44,195.29c-4.11,6.3-13.2,7.65-20.29,3.02c-7.1-4.63-9.51-13.5-5.4-19.8c4.11-6.3,13.2-7.65,20.29-3.02
				C189.14,180.13,191.55,188.99,187.44,195.29z"/>
			<path class="st4" d="M291.74,195.29c4.11,6.3,13.2,7.65,20.29,3.02c7.1-4.63,9.51-13.5,5.4-19.8c-4.11-6.3-13.2-7.65-20.29-3.02
				C290.05,180.13,287.63,188.99,291.74,195.29z"/>
			<path class="st1" d="M225.43,153.75c-0.37,0-0.75-0.04-1.13-0.13c-21.91-5.1-48.48-0.01-48.75,0.04
				c-2.68,0.52-5.29-1.23-5.82-3.91c-0.53-2.69,1.22-5.29,3.91-5.82c1.17-0.23,28.89-5.57,52.91,0.04c2.67,0.62,4.33,3.29,3.7,5.96
				C229.72,152.2,227.68,153.75,225.43,153.75z"/>
			<path class="st1" d="M306.22,155.79c-0.68,0-1.37-0.14-2.04-0.44c-0.3-0.13-18.82-8.12-42.41-0.37c-2.61,0.85-5.4-0.56-6.26-3.16
				c-0.86-2.6,0.56-5.4,3.16-6.26c27.49-9.04,48.7,0.35,49.59,0.75c2.49,1.13,3.6,4.07,2.46,6.56
				C309.91,154.71,308.11,155.79,306.22,155.79z"/>
			<path class="st3" d="M136.29,173.74l5.96,29.07c0,0-8.65,3.34-11.88-3.11c-3.22-6.45,1.11-10.99,1.11-10.99
				s-11.43-1.26-10.94-10.44C121.02,169.08,134.57,165.39,136.29,173.74z"/>
			<path class="st3" d="M343.81,173.74l-5.96,29.07c0,0,8.65,3.34,11.88-3.11c3.22-6.45-1.11-10.99-1.11-10.99
				s11.43-1.26,10.94-10.44C359.08,169.08,345.52,165.39,343.81,173.74z"/>
		</g>
		<g>
			<path class="st5" d="M138.34,125.35c0,0,165.86,19.64,219.87-1.96c54.02-21.6-20.25-48.07-20.25-48.07
				S137.77,71.82,138.34,125.35z"/>
			<path class="st6" d="M337.96,75.31c0,0-52.34,37.21-160.39,47.6c-12.35,1.19-25.41,2.03-39.22,2.43c0,0-20.21-86.28,68.6-109.59
				c3.02-0.79,6.17-1.51,9.45-2.16C316.04-5.86,337.96,75.31,337.96,75.31z"/>
		</g>
		<path class="st3" d="M240.35,201.76c-0.45,0-0.89-0.25-1.11-0.68c-0.31-0.61-0.07-1.36,0.54-1.67l17.18-8.77l-11.13-40.48
			c-0.18-0.66,0.21-1.34,0.87-1.52c0.65-0.19,1.34,0.2,1.52,0.87l11.39,41.46c0.16,0.57-0.11,1.16-0.63,1.43l-18.08,9.23
			C240.73,201.71,240.54,201.76,240.35,201.76z"/>
		<path class="st7" d="M260.23,237.28c-5.21,3.35-12.5,5.38-22.36,4.44c-15.22-1.44-23.73-7.93-28.04-14.83
			c-3.74-6-4.31-12.32-3.4-15.92c2.03-7.91,15.37,2.23,29.75,4.93c11.58,2.16,31.71-3.62,33.69-1.74
			C272.93,217.03,271.39,230.17,260.23,237.28z"/>
		<path class="st8" d="M260.23,237.28c-5.21,3.35-12.5,5.38-22.36,4.44c-15.22-1.44-23.73-7.93-28.04-14.83
			C221.83,222.71,245.53,217.8,260.23,237.28z"/>
		<path class="st9" d="M408.52,425.34c-16.34,16.59-35.08,30.77-55.69,42c-33.67,18.37-72.27,28.86-113.3,28.91h-0.5
			c-42.45-0.02-82.29-11.16-116.75-30.67c-19.12-10.78-36.57-24.15-51.92-39.62c8.21-24.92,21.84-42.82,36.99-55.98
			c7.26-6.3,14.88-11.5,22.39-15.89c0.72-0.42,1.44-0.84,2.18-1.21c2.43,20.36,15.62,80.95,86.48,90.69l20.73,27.42l23.93-27.89
			c66.17-10.14,81.52-61.26,84.89-89.75c1.34,0.72,2.63,1.49,3.94,2.26c5.73,3.47,11.45,7.41,17.01,11.97
			C385.04,380.84,399.74,399.21,408.52,425.34z"/>
		<path class="st2" d="M122.28,465.58c-19.12-10.78-36.57-24.15-51.92-39.62c8.21-24.92,21.84-42.82,36.99-55.98
			C116.83,386.29,130.17,419.02,122.28,465.58z"/>
		<path class="st2" d="M408.52,425.34c-16.34,16.59-35.08,30.77-55.69,42c-8.98-49.93,6.47-84.22,16.07-99.77
			C385.04,380.84,399.74,399.21,408.52,425.34z"/>
		<path class="st3" d="M174.59,356.24l60.44,13.74C235.03,369.98,207.48,343,174.59,356.24z"/>
		<path class="st3" d="M306.94,356.24l-60.44,13.74C246.5,369.98,274.06,343,306.94,356.24z"/>
		
			<ellipse transform="matrix(0.9239 -0.3827 0.3827 0.9239 -4.6784 108.0397)" class="st10" cx="269.24" cy="65.78" rx="27.86" ry="27.86"/>
		<path class="st11" d="M283.23,65.78c0,7.73-6.26,13.99-13.99,13.99s-13.99-6.26-13.99-13.99c0-7.73,6.26-13.99,13.99-13.99
			S283.23,58.05,283.23,65.78z"/>
		<path class="st12" d="M177.57,122.91c-12.35,1.19-25.41,2.03-39.22,2.43c0,0-20.21-86.28,68.6-109.59
			C187.17,35.92,160.81,74.02,177.57,122.91z"/>
	</g>
</g>
</svg>
