<?xml version="1.0" encoding="utf-8"?>
<!-- Generator: Adobe Illustrator 26.3.0, SVG Export Plug-In . SVG Version: 6.00 Build 0)  -->
<svg version="1.1" xmlns="http://www.w3.org/2000/svg" xmlns:xlink="http://www.w3.org/1999/xlink" x="0px" y="0px"
	 viewBox="0 0 478.24 500" style="enable-background:new 0 0 478.24 500;" xml:space="preserve">
<style type="text/css">
	.st0{fill:#FFB240;}
	.st1{fill:#FFD7B5;}
	.st2{fill:#451378;}
	.st3{fill:#6A9DC4;}
	.st4{opacity:0.3;fill:#46134B;}
	.st5{fill:#FFC6A6;}
	.st6{fill:#FFAC7E;}
	.st7{fill:#46134B;}
	.st8{fill:#FF918B;}
	.st9{fill:#FFFFFF;}
	.st10{fill:#5E3162;}
	.st11{fill:#FFB38D;}
	.st12{fill:#AD3320;}
	.st13{fill:#D43E20;}
</style>
<g id="BACKGROUND">
</g>
<g id="OBJECTS">
	<g>
		<path class="st0" d="M477,258.41c0,67.54-28.14,128.48-73.34,171.79c-42.57,40.76-100.26,65.88-163.83,66.05h-1.17
			c-68.23-0.15-129.72-29.03-172.98-75.2C25.76,378.51,1.34,321.31,1.34,258.41c0-131.33,106.49-237.82,237.84-237.82
			S477,127.08,477,258.41z"/>
		<g>
			<g>
				<path class="st1" d="M403.66,430.2c-42.57,40.76-100.26,65.88-163.83,66.05h-1.17c-68.23-0.15-129.72-29.03-172.98-75.2
					c12.6-33.84,35.43-54.05,57.67-66.97c2.53-1.49,5.16-2.88,7.83-4.17c3.27-1.59,6.62-3.05,9.97-4.39
					c5.48-2.21,11.01-4.12,16.31-5.8c8.85-2.8,17.16-5.01,23.75-6.94c8.93-2.58,14.75-4.71,14.75-7.21v-65.03
					c0-10.96,0-18.82,0-18.82h74.35c0,0,0,5.93,0,14.68v69.17c0,3.15,9.03,5.7,21.84,9.32c7.07,2.01,15.27,4.34,23.75,7.29
					c4.34,1.49,8.78,3.17,13.14,5.06c3.65,1.56,7.26,3.27,10.79,5.16c1.91,1.02,3.79,2.08,5.65,3.2
					C368.83,369.75,392.38,392.17,403.66,430.2z"/>
			</g>
			<path class="st2" d="M403.66,430.2c-6.62,6.35-13.61,12.3-20.93,17.85c-6,4.56-12.25,8.83-18.67,12.79
				c-12.99,8.03-26.8,14.85-41.28,20.28c-25.81,9.72-53.78,15.02-82.96,15.12h-1.17c-29.26-0.07-57.25-5.4-83.11-15.12
				c-14.48-5.45-28.29-12.25-41.26-20.28c-6.42-3.97-12.62-8.23-18.62-12.79c-8.26-6.22-16.07-13.02-23.43-20.28
				c-2.23-2.18-4.41-4.44-6.57-6.72c0.77-2.08,1.59-4.09,2.43-6.07c3.2-7.44,6.89-14.18,10.98-20.28c3.07-4.61,6.37-8.88,9.84-12.79
				c7.07-8.03,14.78-14.68,22.66-20.28c3.89-2.78,7.84-5.26,11.75-7.54c2.53-1.49,5.16-2.88,7.83-4.17
				c0.79-0.37,1.59-0.74,2.38-1.09c2.5-1.19,5.03-2.28,7.59-3.3c1.34-0.55,2.68-1.07,4.02-1.56c4.14-1.56,8.28-2.98,12.3-4.24
				c1.29-0.42,2.58-0.82,3.84-1.19c7.39-2.26,14.28-4.09,19.91-5.75l34.64,16.04l22.78,10.56l23.08-10.56l30.45-13.93
				c5.48,1.56,11.65,3.32,18.1,5.4c1.86,0.6,3.74,1.22,5.65,1.88c3.2,1.09,6.47,2.31,9.72,3.62c1.14,0.47,2.28,0.94,3.42,1.44
				c1.19,0.52,2.38,1.04,3.57,1.59c2.43,1.12,4.86,2.31,7.22,3.57c1.91,1.02,3.79,2.08,5.65,3.2c3.07,1.86,6.15,3.87,9.17,6.02
				c7.88,5.58,15.59,12.25,22.66,20.28c3.47,3.92,6.77,8.18,9.84,12.79c4.09,6.1,7.81,12.84,10.98,20.28
				c1.76,4.04,3.35,8.31,4.76,12.79C403.16,428.56,403.41,429.38,403.66,430.2z"/>
			<path class="st3" d="M364.07,460.84c-12.99,8.03-26.8,14.85-41.28,20.28H155.55c-14.48-5.45-28.29-12.25-41.26-20.28H364.07z"/>
			<path class="st3" d="M403.66,430.2c-6.62,6.35-13.61,12.3-20.93,17.85H95.68c-8.26-6.22-16.07-13.02-23.43-20.28h330.67
				C403.16,428.56,403.41,429.38,403.66,430.2z"/>
			<path class="st3" d="M398.16,414.98H68.11c3.2-7.44,6.89-14.18,10.98-20.28h308.08C391.26,400.8,394.98,407.54,398.16,414.98z"/>
			<path class="st3" d="M377.33,381.9H88.94c7.07-8.03,14.78-14.68,22.66-20.28h243.07C362.55,367.2,370.26,373.87,377.33,381.9z"/>
			<path class="st3" d="M181.22,332.79l34.64,16.04h-82.29c2.5-1.19,5.03-2.28,7.59-3.3c5.48-2.21,11.01-4.12,16.31-5.8
				c1.29-0.42,2.58-0.82,3.84-1.19C168.7,336.28,175.59,334.45,181.22,332.79z"/>
			<path class="st3" d="M332.63,348.83h-70.91l30.45-13.93c5.48,1.56,11.65,3.32,18.1,5.4c1.86,0.6,3.74,1.22,5.65,1.88
				c4.34,1.49,8.78,3.17,13.14,5.06C330.25,347.76,331.44,348.28,332.63,348.83z"/>
			<path class="st4" d="M325.64,345.8l-55.31,62.45l-31.14-26.36l-27.22,26.36l-66.79-64.29c4.14-1.56,8.28-2.98,12.3-4.24
				c1.29-0.42,2.58-0.82,3.84-1.19c7.39-2.26,14.28-4.09,19.91-5.75l34.64,16.04l22.78,10.56l23.08-10.56l30.45-13.93
				c5.48,1.56,11.65,3.32,18.1,5.4c1.86,0.6,3.74,1.22,5.65,1.88C319.12,343.28,322.39,344.49,325.64,345.8z"/>
			<path class="st5" d="M270.32,256.4v47.35c-8.43,6.57-19.78,12.47-33.94,13.39c-20.63,1.31-33.5-7.36-40.41-14.4v-42.2l72.64-6.79
				L270.32,256.4z"/>
			<path class="st1" d="M141.88,111.27c0,0-17.89,93.69,7.97,138.63c12.93,22.47,49.38,46.42,83.27,47.05
				c33.9,0.63,65.24-22.05,81.48-41.76c32.47-39.44,8.05-143.92,8.05-143.92S250.02,59.58,141.88,111.27z"/>
			<g>
				<path class="st1" d="M322.82,173.45c0,0,20.09-28.45,34.71-3.48c10.39,17.75-9.05,56.14-33.76,39.61L322.82,173.45z"/>
			</g>
			<path class="st6" d="M337.42,173.74l-5.96,29.07c0,0,8.65,3.34,11.88-3.11c3.22-6.45-1.11-10.99-1.11-10.99
				s11.43-1.26,10.94-10.44C352.68,169.08,339.13,165.39,337.42,173.74z"/>
			<g>
				<path class="st1" d="M143.87,173.69c0,0-20.09-28.45-34.71-3.48c-10.39,17.75,9.05,56.14,33.76,39.61L143.87,173.69z"/>
			</g>
			<path class="st6" d="M129.89,173.74l5.96,29.07c0,0-8.65,3.34-11.88-3.11c-3.22-6.45,1.11-10.99,1.11-10.99
				s-11.43-1.26-10.94-10.44C114.63,169.08,128.18,165.39,129.89,173.74z"/>
			<path class="st7" d="M135.84,104.25c0,0-1.34,138.23,0.7,167.47c2.04,29.24,85.44,52.5,96.19,52.5s98.05-21.93,98.05-57.15
				s0-162.82,0-162.82h-19.42v99.43l-36.45,17.05c0,0-5.92-19.53-44.09-19.53c-38.17,0-42.38,19.02-42.38,19.02l-33.58-16.54V101.59
				L135.84,104.25z"/>
			<g>
				<g>
					<path class="st7" d="M203.03,169.36c0,5.41-4.35,9.79-9.72,9.79c-5.37,0-9.72-4.38-9.72-9.79c0-5.41,4.35-9.79,9.72-9.79
						C198.67,159.56,203.03,163.95,203.03,169.36z"/>
					<path class="st7" d="M282.71,169.36c0,5.41-4.35,9.79-9.72,9.79s-9.72-4.38-9.72-9.79c0-5.41,4.35-9.79,9.72-9.79
						S282.71,163.95,282.71,169.36z"/>
				</g>
			</g>
			<path class="st8" d="M186,200.25c-4.11,6.3-13.2,7.65-20.29,3.02c-7.1-4.63-9.51-13.49-5.4-19.8c4.11-6.3,13.2-7.65,20.29-3.02
				C187.7,185.09,190.12,193.95,186,200.25z"/>
			<path class="st8" d="M280.39,200.25c4.11,6.3,13.2,7.65,20.29,3.02c7.1-4.63,9.51-13.49,5.4-19.8c-4.11-6.3-13.2-7.65-20.29-3.02
				C278.69,185.09,276.28,193.95,280.39,200.25z"/>
			<path class="st7" d="M172.16,158.43c-1.14,0-2.29-0.39-3.22-1.19c-2.06-1.77-2.33-4.86-0.57-6.94c0.55-0.65,13.67-15.8,39.6-9.76
				c2.67,0.62,4.33,3.29,3.7,5.95c-0.62,2.67-3.3,4.33-5.95,3.7c-19.78-4.61-29.39,6.07-29.79,6.53
				C174.94,157.85,173.55,158.43,172.16,158.43z"/>
			<path class="st7" d="M278.35,153.96c-7.08,0-15.16-2.11-22.87-8.42c-2.12-1.73-2.43-4.86-0.69-6.98
				c1.74-2.12,4.86-2.43,6.98-0.69c14.42,11.81,28.71,3.14,28.85,3.05c2.33-1.45,5.38-0.74,6.83,1.58c1.45,2.32,0.74,5.38-1.58,6.83
				C292.25,151.58,285.86,153.96,278.35,153.96z"/>
			<path class="st9" d="M216.66,216.23l30.4-4.32c0,0-1.12,12.69-13.45,14.44C221.27,228.1,216.66,216.23,216.66,216.23z"/>
		</g>
		<path class="st10" d="M165.22,223.87c-4.65-1.99-15.95,45.19-9.3,51.17C162.56,281.02,169.87,225.86,165.22,223.87z"/>
		<path class="st10" d="M185.89,235.58c-4.83-1.51-11.29,46.57-4.08,51.85C189.03,292.71,190.72,237.1,185.89,235.58z"/>
		<path class="st10" d="M213.07,249.33c-4.89-1.31-9.37,47-1.94,51.97C218.56,306.28,217.96,250.65,213.07,249.33z"/>
		<path class="st10" d="M300.51,226.34c4.65-1.99,15.95,45.19,9.3,51.17C303.17,283.5,295.86,228.34,300.51,226.34z"/>
		<path class="st10" d="M279.84,238.06c4.83-1.51,11.29,46.57,4.08,51.85C276.7,295.19,275.01,239.58,279.84,238.06z"/>
		<path class="st10" d="M252.66,251.81c4.89-1.31,9.37,47,1.94,51.97C247.17,308.76,247.77,253.12,252.66,251.81z"/>
		<path class="st11" d="M230.35,203.49c-3.15,0-6.18-0.51-7.97-2.12c-0.94-0.84-1.98-2.39-1.6-4.96
			c2.98-20.16,8.49-49.78,8.55-50.08c0.12-0.67,0.76-1.11,1.45-0.99c0.67,0.13,1.12,0.77,0.99,1.45c-0.06,0.3-5.56,29.87-8.53,49.98
			c-0.24,1.61,0.34,2.34,0.8,2.76c3.16,2.83,13.56,0.92,17.3-0.07c0.66-0.17,1.34,0.23,1.51,0.89c0.17,0.66-0.22,1.34-0.89,1.51
			C241.03,202.11,235.52,203.49,230.35,203.49z"/>
		<path class="st12" d="M140.35,106.36c0,0,18.67-63.25,93.3-63.25c77.07,0,90.74,68.09,90.74,68.09L140.35,106.36z"/>
		<path class="st13" d="M135.57,141.7c0,0,38.39-17.01,98.08-17.01c59.69,0,97.13,17.01,97.13,17.01s3.79-21.41,3.79-31.85
			S292.83,80.71,230.7,80.71c-62.13,0-100.06,18.14-102.26,24.18C126.25,110.95,135.57,141.7,135.57,141.7z"/>
		<path class="st12" d="M152.08,127.35c6.97-1.58,1.9-25.03-4.12-23.28C141.95,105.82,145.11,128.93,152.08,127.35z"/>
		<path class="st12" d="M175.12,120.44c6.97-1.58,1.9-25.03-4.12-23.28C164.99,98.9,168.15,122.02,175.12,120.44z"/>
		<path class="st12" d="M199.37,116.05c7-1.41,2.52-24.98-3.54-23.38C189.77,94.27,192.37,117.46,199.37,116.05z"/>
		<path class="st12" d="M222.98,111.83c7.07-1.02,3.91-24.8-2.23-23.54C214.61,89.55,215.9,112.85,222.98,111.83z"/>
		<path class="st12" d="M313.56,127.35c-6.97-1.58-1.9-25.03,4.12-23.28C323.7,105.82,320.53,128.93,313.56,127.35z"/>
		<path class="st12" d="M290.52,120.44c-6.97-1.58-1.9-25.03,4.12-23.28C300.66,98.9,297.49,122.02,290.52,120.44z"/>
		<path class="st12" d="M266.28,116.05c-7-1.41-2.52-24.98,3.54-23.38C275.88,94.27,273.28,117.46,266.28,116.05z"/>
		<path class="st12" d="M242.67,111.83c-7.07-1.02-3.91-24.8,2.23-23.54C251.03,89.55,249.74,112.85,242.67,111.83z"/>
		<path class="st9" d="M310.26,340.3l-42.3,48.07l-29.33-19.39l-26.68,19.39l-50.65-49.83c7.39-2.26,14.28-4.09,19.91-5.75
			l57.42,26.6l53.53-24.5C297.64,336.46,303.82,338.22,310.26,340.3z"/>
	</g>
</g>
</svg>
